<?xml version="1.0" standalone="no"?>
<!DOCTYPE svg PUBLIC "-//W3C//DTD SVG 1.1//EN" "http://www.w3.org/Graphics/SVG/1.1/DTD/svg11.dtd" >
<!--
2013-9-30: Created.
-->
<svg>
<metadata>
Created by iconfont
</metadata>
<defs>

<font id="iconfont" horiz-adv-x="1024" >
  <font-face
    font-family="iconfont"
    font-weight="500"
    font-stretch="normal"
    units-per-em="1024"
    ascent="896"
    descent="-128"
  />
    <missing-glyph />
    
    <glyph glyph-name="baoxianzhushouicon25" unicode="&#59598;" d="M934.4 532.8l-266.4 38.4-120 242.4c-7.2 14.4-24 24-40.8 24-16.8 0-31.2-9.6-40.8-26.4l-115.2-244.8L84.8 528c-16.8-2.4-31.2-14.4-36-31.2-4.8-16.8 0-33.6 12-45.6l194.4-189.6L219.2-7.2000000000000455C216.8-24 224-40.799999999999955 236-50.39999999999998c7.2-4.8 16.8-9.6 26.4-9.6 7.2 0 14.4 2.4 21.6 4.8l228 127.2 225.6-124.8c7.2-2.4 14.4-4.8 21.6-4.8 24 0 43.2 19.2 43.2 45.6 0 4.8 0 7.2 0 9.6L766.4 264l192 192c12 12 16.8 28.8 12 45.6C963.2 518.4 951.2 530.4 934.4 532.8zM315.2 266.4c2.4 14.4-2.4 31.2-14.4 40.8l-184.8 168 259.2 36c14.4 2.4 28.8 12 36 26.4l96 223.2 105.6-218.4c7.2-14.4 19.2-24 36-26.4l252-40.8-180-172.8c-12-9.6-16.8-26.4-12-40.8l28.8-249.6-204 120c-12 7.2-28.8 4.8-43.2-2.4l-208.8-115.2L315.2 266.4z"  horiz-adv-x="1024" />

    
    <glyph glyph-name="qq" unicode="&#58884;" d="M518.144 848.896C264.192 848.896 57.344 642.048 57.344 388.096c0-253.952 206.848-460.8 460.8-460.8 253.952 0 460.8 206.848 460.8 460.8C978.944 642.048 774.144 848.896 518.144 848.896L518.144 848.896zM763.904 238.592c-8.192-12.288-32.768 2.048-49.152 38.912-4.096-16.384-16.384-43.008-40.96-75.776 40.96-10.24 53.248-49.152 38.912-71.68-10.24-16.384-32.768-28.672-71.68-28.672-69.632 0-98.304 18.432-112.64 30.72-2.048 2.048-6.144 4.096-12.288 4.096-4.096 0-8.192-2.048-12.288-4.096-14.336-12.288-43.008-30.72-112.64-30.72-38.912 0-61.44 12.288-71.68 28.672-14.336 22.528-2.048 63.488 38.912 71.68-24.576 32.768-34.816 59.392-40.96 75.776-16.384-36.864-40.96-51.2-49.152-38.912-6.144 10.24-10.24 30.72-8.192 45.056 4.096 55.296 40.96 102.4 63.488 124.928-2.048 6.144-10.24 47.104 18.432 75.776 0 0 0 2.048 0 2.048 0 108.544 77.824 186.368 174.08 186.368 96.256 0 174.08-77.824 174.08-186.368 0 0 0-2.048 0-2.048 28.672-26.624 20.48-67.584 18.432-75.776 20.48-24.576 59.392-69.632 63.488-124.928C774.144 269.312 772.096 248.832 763.904 238.592L763.904 238.592zM763.904 238.592"  horiz-adv-x="1024" />

    
    <glyph glyph-name="jilu" unicode="&#59133;" d="M810.4040075 831.69067969L213.39278938 831.69067969C138.03824187 831.69067969 76.70472031 771.67797937 76.70472031 697.94905781l0-628.71092906c0-73.72892156 61.29965437-133.70775375 136.68806906-133.70775375L722.55245844-64.46962499999995c14.19036188 0 25.70521406 11.480985 25.70521406 25.70521406s-11.480985 25.70521406-25.70521406 25.70521406L213.39278938-13.05919687000005c-47.04155812 0-85.27764094 36.94912875-85.27764094 82.33119281L128.11514844 697.94905781c0 45.41593125 38.26995 82.33119281 85.27764094 82.33119281l597.01121812 0c47.04155812 0 85.27764094-36.94912875 85.27764094-82.33119281l0-570.01905 0-27.53404406 0-31.157835c0-45.38206406-38.26995-82.33119281-85.27764094-82.33119281-14.19036188 0-25.70521406-11.480985-25.70521406-25.70521407s11.480985-25.70521406 25.70521406-25.70521406c75.3545475 0 136.68806906 60.01270031 136.68806906 133.70775375l0 31.157835 0 27.53404406L947.09207656 697.94905781C947.09207656 771.67797937 885.758555 831.69067969 810.4040075 831.69067969zM729.12269844 653.95554937c0 14.19036188-11.480985 25.70521406-25.70521406 25.70521407L238.9286675 679.66076344c-14.19036188 0-25.70521406-11.51485219-25.70521406-25.70521406 0-14.19036188 11.51485219-25.70521406 25.70521406-25.70521407l464.48881687 0C717.60784625 628.2503353100001 729.12269844 639.73132031 729.12269844 653.95554937zM238.9286675 474.05291719l348.52748156 0c14.19036188 0 25.70521406 11.51485219 25.70521406 25.70521406 0 14.19036188-11.480985 25.70521406-25.70521406 25.70521406L238.9286675 525.46334625c-14.19036188 0-25.70521406-11.51485219-25.70521406-25.70521406C213.25732062 485.56776937 224.73830563 474.05291719 238.9286675 474.05291719zM238.9286675 319.88936719000003l430.48613531 0c14.19036188 0 25.70521406 11.480985 25.70521406 25.70521406 0 14.19036188-11.480985 25.70521406-25.70521406 25.70521406L238.9286675 371.29979531000004c-14.19036188 0-25.70521406-11.51485219-25.70521406-25.70521406C213.25732062 331.37035218999995 224.73830563 319.88936719000003 238.9286675 319.88936719000003z"  horiz-adv-x="1024" />

    
    <glyph glyph-name="tuandui" unicode="&#58897;" d="M764.89697 266.60202c-31.159596 31.159596-67.620202 55.725253-108.088889 72.791919-9.69697 4.137374-19.652525 7.757576-29.608081 10.860606 18.618182 9.955556 35.943434 22.755556 51.329293 38.141415 41.115152 41.115152 63.741414 95.806061 63.741414 153.987878s-22.626263 112.872727-63.741414 153.987879C637.414141 737.616162 582.723232 760.242424 524.541414 760.242424s-112.872727-22.626263-153.987879-63.741414c-41.115152-41.115152-63.741414-95.806061-63.741414-153.987879s22.626263-112.872727 63.741414-153.987878c15.385859-15.385859 32.711111-28.185859 51.329293-38.141415-9.955556-3.232323-19.911111-6.723232-29.608081-10.860606-40.468687-17.066667-76.8-41.632323-108.088888-72.791919-31.159596-31.159596-55.725253-67.620202-72.79192-108.088889-17.713131-41.890909-26.763636-86.367677-26.763636-132.266666 0-11.248485 9.050505-20.29899 20.29899-20.29899s20.29899 9.050505 20.29899 20.29899c0 160.452525 126.965657 291.814141 285.737374 298.925252 4.525253-0.258586 9.050505-0.517172 13.575757-0.517172s9.050505 0.129293 13.575758 0.517172c158.771717-7.111111 285.737374-138.472727 285.737373-298.925252 0-11.248485 9.050505-20.29899 20.29899-20.29899s20.29899 9.050505 20.29899 20.29899c0 45.89899-8.921212 90.375758-26.763636 132.266666-17.066667 40.468687-41.632323 76.8-72.791919 107.959596zM347.410101 542.513131c0 97.616162 79.515152 177.131313 177.131313 177.131313s177.131313-79.515152 177.131313-177.131313c0-93.478788-72.791919-170.149495-164.589899-176.614141-4.137374 0.129293-8.40404 0.258586-12.541414 0.258586-4.137374 0-8.40404-0.129293-12.541414-0.258586-91.79798 6.464646-164.589899 83.135354-164.589899 176.614141zM101.107071 96.452525H41.373737c9.955556 127.094949 112.484848 227.943434 241.777778 234.020202 4.137374-0.258586 8.145455-0.387879 12.153536-0.387879 4.266667 0 8.791919 0.129293 13.317171 0.517172 0.387879 0 0.775758 0.129293 1.163637 0.258586 0.775758 0.129293 1.422222 0.258586 2.197979 0.387879 0.646465 0.129293 1.163636 0.387879 1.810101 0.517172l1.939394 0.775757c0.517172 0.258586 1.163636 0.517172 1.680808 0.905051 0.517172 0.387879 1.163636 0.646465 1.680808 1.034343 0.517172 0.387879 1.034343 0.775758 1.422223 1.163636 0.517172 0.387879 1.034343 0.905051 1.422222 1.29293 0.387879 0.517172 0.775758 0.905051 1.163636 1.422222 0.387879 0.517172 0.775758 1.034343 1.163637 1.680808 0.387879 0.517172 0.646465 1.034343 0.90505 1.551515 0.258586 0.646465 0.646465 1.163636 0.775758 1.810101 0.258586 0.646465 0.517172 1.163636 0.646464 1.810101 0.129293 0.646465 0.387879 1.292929 0.387879 1.939394 0.129293 0.646465 0.258586 1.292929 0.258586 2.068687 0 0.258586 0.129293 0.646465 0.129293 0.905051v1.163636 1.163636c0 0.258586-0.129293 0.646465-0.129293 0.905051-0.129293 0.775758-0.258586 1.422222-0.387879 2.068687-0.129293 0.646465-0.258586 1.292929-0.517171 1.810101l-0.775758 1.939394c-0.258586 0.646465-0.517172 1.163636-0.905051 1.680808-0.258586 0.517172-0.646465 1.163636-1.034343 1.680808l-1.163636 1.551515c-0.387879 0.517172-0.905051 0.905051-1.29293 1.422222-0.517172 0.387879-0.905051 0.905051-1.422222 1.292929l-1.551515 1.163637c-0.517172 0.387879-1.034343 0.646465-1.680808 1.034343-0.517172 0.258586-1.163636 0.517172-1.810101 0.775758-0.646465 0.258586-1.292929 0.517172-1.939394 0.646464-0.646465 0.129293-1.163636 0.258586-1.810101 0.387879-0.646465 0.129293-1.422222 0.258586-2.19798 0.258586-0.258586 0-0.517172 0.129293-0.90505 0.129293-4.525253 0.258586-8.791919 0.258586-12.8 0.258586-3.620202 0-7.49899-0.129293-11.507071-0.258586-77.446465 5.947475-137.955556 71.240404-137.955556 149.074747 0 79.127273 61.80202 144.808081 140.8 149.333334 11.248485 0.646465 19.781818 10.214141 19.135354 21.462626-0.646465 11.248485-10.214141 19.781818-21.462626 19.135354-100.460606-5.818182-179.070707-89.212121-179.070707-189.802021 0-48.484848 18.230303-94.642424 51.329293-130.068686 12.929293-13.705051 27.539394-25.341414 43.571717-34.521213-44.218182-14.99798-84.557576-40.468687-117.656566-74.989899-53.010101-55.466667-82.230303-128.129293-82.230303-204.670707 0-11.248485 9.050505-20.29899 20.29899-20.29899h80.808081c11.248485 0 20.29899 9.050505 20.29899 20.29899 0 11.119192-9.050505 20.29899-20.29899 20.29899zM959.094949 280.565657c-33.228283 34.521212-73.438384 59.991919-117.656565 74.989899 15.90303 9.309091 30.642424 20.816162 43.571717 34.521212 33.09899 35.29697 51.329293 81.583838 51.329293 130.068687 0 100.719192-78.739394 184.113131-179.2 189.80202-11.248485 0.646465-20.816162-7.886869-21.462626-19.135354-0.646465-11.248485 7.886869-20.816162 19.135353-21.462626 78.99798-4.525253 140.8-70.076768 140.8-149.333333 0-77.834343-60.509091-143.127273-137.955555-149.074748-4.137374 0.129293-7.886869 0.258586-11.636364 0.258586-4.008081 0-8.145455-0.129293-12.8-0.258586-0.258586 0-0.646465-0.129293-0.90505-0.129293-0.775758 0-1.422222-0.129293-2.068687-0.258586l-1.939394-0.387878c-0.646465-0.129293-1.292929-0.387879-1.939394-0.646465s-1.163636-0.517172-1.810101-0.775758c-0.517172-0.258586-1.034343-0.646465-1.551515-1.034343-0.517172-0.387879-1.163636-0.775758-1.680808-1.163636-0.517172-0.387879-0.905051-0.775758-1.422223-1.29293l-1.422222-1.422222-1.163636-1.551515c-0.387879-0.517172-0.775758-1.163636-1.034344-1.680808-0.258586-0.517172-0.517172-1.163636-0.775757-1.680808l-0.775758-1.939394c-0.129293-0.646465-0.387879-1.163636-0.517172-1.810101-0.129293-0.646465-0.258586-1.422222-0.387878-2.068687 0-0.258586-0.129293-0.646465-0.129293-0.905051v-1.163636c0-0.387879-0.129293-0.775758-0.129293-1.163636 0-0.258586 0.129293-0.646465 0.129293-0.905051 0-0.646465 0.129293-1.422222 0.258586-2.068687l0.387878-1.939394c0.129293-0.646465 0.387879-1.292929 0.646465-1.810101 0.258586-0.646465 0.517172-1.163636 0.775758-1.810101 0.258586-0.517172 0.646465-1.034343 0.90505-1.551515 0.387879-0.517172 0.775758-1.163636 1.163636-1.680808 0.387879-0.517172 0.775758-0.905051 1.163637-1.422222 0.517172-0.517172 0.905051-0.905051 1.422222-1.292929 0.517172-0.387879 0.905051-0.775758 1.422222-1.163637 0.517172-0.387879 1.034343-0.775758 1.680808-1.034343 0.517172-0.258586 1.034343-0.646465 1.680808-0.905051l1.939394-0.775757c0.646465-0.258586 1.163636-0.387879 1.810101-0.517172 0.646465-0.129293 1.422222-0.258586 2.19798-0.387879 0.387879 0 0.775758-0.129293 1.163637-0.258586 4.525253-0.258586 8.921212-0.517172 13.317171-0.517171 3.878788 0 8.016162 0.129293 12.153536 0.387878 129.292929-6.076768 231.822222-106.925253 241.777777-234.020202h-59.733333c-11.248485 0-20.29899-9.050505-20.29899-20.29899s9.050505-20.29899 20.29899-20.298989h80.808081c11.248485 0 20.29899 9.050505 20.29899 20.298989 0.387879 76.8-28.832323 149.462626-81.842425 204.670708z"  horiz-adv-x="1040" />

    
    <glyph glyph-name="edit" unicode="&#58896;" d="M916.823514 483.967806c-12.507872 0-22.648836-10.119475-22.720468-22.603811l0-0.069585c0-0.023536 0-0.023536 0-0.070608 0 0 0-0.023536 0-0.046049l0-402.968771c0-25.109887-20.354584-45.439912-45.437865-45.439912L414.133553 12.769071000000054c-0.022513 0-0.022513 0-0.047072 0L166.98157 12.769071000000054c-25.084305 0-45.438888 20.330024-45.438888 45.439912l0 657.709593c0 25.108864 20.354584 45.438888 45.438888 45.438888l439.051571 0c12.531408 0.022513 22.695908 10.188037 22.695908 22.719444 0 12.554944-10.1645 22.719444-22.695908 22.719444L162.438091 806.796352c-47.688115 0-86.334297-38.647205-86.334297-86.334297l0-222.395136c0-0.023536 0-0.070608 0-0.070608l0-444.332854c0-47.689139 38.647205-86.334297 86.334297-86.334297l690.77057 0c47.689139 0 86.335321 38.646182 86.335321 86.334297L939.543981 461.363995C939.471326 473.848331 929.330362 483.967806 916.823514 483.967806zM494.449787 192.83923900000002l432.257841 432.223049c25.716708 25.694195 23.351847 69.938885-5.293563 98.537224l-40.825824 40.871873c-28.620851 28.64541-72.843028 31.03483-98.558713 5.340635L349.76964 337.506083 494.449787 192.83923900000002zM814.232974 737.535919c9.768481 9.743922 26.5374 8.854669 37.406958-1.990331l40.847314-40.848337c10.844999-10.915607 11.757788-27.662013 1.991354-37.382399l-47.969525-47.968501-79.612199 80.853469L814.232974 737.535919zM812.571125 575.407378L491.193627 253.98280799999998l-80.269162 80.245625 322.034461 322.032414L812.571125 575.407378zM349.558839 336.68743800000004l-44.431955-162.819273c-1.944282-7.121188 0.094144-14.661931 5.245468-19.909445 5.223978-5.152347 12.789281-7.166213 19.885909-5.246491l162.831552 44.408419-33.330106 33.388435-105.726973-28.891004 28.832675 105.787348L349.558839 336.68743800000004z"  horiz-adv-x="1024" />

    
    <glyph glyph-name="code2" unicode="&#58881;" d="M857.054 740.284H166.95c-25.996 0-47.136-21.146-47.136-47.138v-618.292c0-25.992 21.14-47.138 47.136-47.138h690.106c25.988 0 47.132 21.146 47.132 47.138V693.146c0 25.99-21.146 47.138-47.134 47.138z m-142.12-79.154a17.406 17.406 0 0 0 17.402 17.406h17.406a17.4 17.4 0 0 0 17.402-17.406v-19.726a17.402 17.402 0 0 0-17.402-17.404h-17.406a17.404 17.404 0 0 0-17.402 17.404v19.726z m-80.934 0a17.408 17.408 0 0 0 17.406 17.406h17.402a17.408 17.408 0 0 0 17.406-17.406v-19.726a17.406 17.406 0 0 0-17.406-17.404h-17.402a17.406 17.406 0 0 0-17.406 17.404v19.726z m213.622-576.846H176.378V571.716H847.62v-487.432z m0.456 557.12a17.404 17.404 0 0 0-17.402-17.404h-17.406a17.4 17.4 0 0 0-17.406 17.404v19.726a17.404 17.404 0 0 0 17.406 17.406h17.406a17.404 17.404 0 0 0 17.402-17.406v-19.726zM288.184 309.61800000000005l126.168-58.672a24.538 24.538 0 0 1 23.52 1.572 24.428 24.428 0 0 1 11.332 20.67v0.644c0 9.502-5.57 18.232-14.192 22.238l-78.91 36.662 78.91 36.668a24.606 24.606 0 0 1 14.192 22.236v0.638c0 8.42-4.238 16.15-11.332 20.668a24.484 24.484 0 0 1-13.21 3.832c-3.558 0-7.126-0.782-10.32-2.266l-126.16-58.666a24.608 24.608 0 0 1-14.18-22.234v-1.754c-0.002-9.486 5.56-18.212 14.182-22.236zM450.328 190.11400000000003a24.6 24.6 0 0 1 19.8-10.06h0.632a24.438 24.438 0 0 1 23.344 17.032l83.11 257.522a24.6 24.6 0 0 1-3.54 21.946 24.604 24.604 0 0 1-19.804 10.06h-0.632a24.446 24.446 0 0 1-23.356-17.032L446.764 212.03999999999996a24.63 24.63 0 0 1 3.564-21.926zM574.796 391.634c0-9.492 5.566-18.222 14.188-22.246l78.91-36.66-78.91-36.66a24.608 24.608 0 0 1-14.188-22.238v-0.644a24.42 24.42 0 0 1 11.336-20.672 24.492 24.492 0 0 1 13.188-3.846c3.586 0 7.058 0.766 10.34 2.282l126.16 58.67c8.614 4.018 14.18 12.744 14.18 22.23v1.754c0 9.498-5.566 18.226-14.188 22.236l-126.16 58.666a24.586 24.586 0 0 1-10.304 2.262c-4.714 0-9.286-1.322-13.21-3.824a24.4 24.4 0 0 1-11.34-20.674v-0.636z"  horiz-adv-x="1024" />

    
    <glyph glyph-name="chakan" unicode="&#58917;" d="M509.568-15.232c-259.2 0-394.304 246.592-400 257.088l-7.808 14.656 7.488 14.784C115.072 282.88 258.944 563.456 526.848 544c293.312-20.48 381.184-266.176 384.704-276.608l3.712-10.688-3.84-10.56c-0.896-2.624-97.28-261.376-401.856-261.376zM174.784 257.536c31.616-49.6 147.776-208.832 334.784-208.832 228.48 0 317.312 164.032 337.216 208.448a373.76 373.76 0 0 1-324.416 222.912c-193.984 14.208-315.584-168.32-347.584-222.528zM509.568 157.696c-59.072 0-107.136 48.064-107.136 107.136s48.064 107.136 107.136 107.136c59.136 0 107.2-48.064 107.2-107.136s-48.064-107.136-107.2-107.136z m0 150.272a43.2 43.2 0 1 1 0.128-86.4 43.2 43.2 0 0 1-0.128 86.4z"  horiz-adv-x="1024" />

    
    <glyph glyph-name="gantanhao" unicode="&#58880;" d="M512-64C265-64 64 137 64 384S265 832 512 832s448-201 448-448-201-448-448-448z m0 850.8c-222.1 0-402.8-180.7-402.8-402.8 0-222.1 180.7-402.8 402.8-402.8 222.1 0 402.8 180.7 402.8 402.8 0 222.1-180.7 402.8-402.8 402.8M512.2 99c-33.1 0-60 26.8-60 60 0 33.1 26.8 60 60 60s60-26.8 60-60c0-33.1-26.9-60-60-60z m0 180c-16.6 0-30 26.8-30 60l-30 270c0 33.1 26.8 60 60 60s60-26.8 60-60l-30-270c0-33.2-13.5-60-30-60z"  horiz-adv-x="1024" />

    
    <glyph glyph-name="tuichu" unicode="&#58931;" d="M874.338462 896H149.661538C110.276923 896 78.769231 856.615385 78.769231 809.353846v-854.646154C78.769231-88.615385 110.276923-128 149.661538-128h720.738462c39.384615 0 70.892308 39.384615 70.892308 86.646154V68.923077c0 23.630769-15.753846 39.384615-39.384616 39.384615s-39.384615-15.753846-39.384615-39.384615v-78.769231c0-39.384615-7.876923-39.384615-39.384615-39.384615H196.923077c-31.507692 0-39.384615 0-39.384615 39.384615V777.846154c0 39.384615 7.876923 39.384615 39.384615 39.384615h630.153846c31.507692 0 39.384615 0 39.384615-39.384615v-78.769231c0-23.630769 15.753846-39.384615 39.384616-39.384615s39.384615 15.753846 39.384615 39.384615V809.353846C945.230769 856.615385 913.723077 896 874.338462 896zM638.030769 116.184615c15.753846-15.753846 47.261538-11.815385 70.892308 11.815385l212.676923 212.676923 11.815385 11.815385c7.876923 7.876923 7.876923 15.753846 7.876923 27.56923v7.876924c0 11.815385 0 19.692308-7.876923 27.56923 0 0-11.815385 7.876923-11.815385 11.815385L708.923077 640c-23.630769 23.630769-55.138462 27.569231-70.892308 11.815385-15.753846-15.753846-11.815385-47.261538 11.815385-70.892308l153.6-153.6H358.4C334.769231 423.384615 315.076923 407.630769 315.076923 384c0-23.630769 19.692308-39.384615 43.323077-39.384615h448.984615l-153.6-153.6c-23.630769-23.630769-31.507692-55.138462-15.753846-74.83077z"  horiz-adv-x="1024" />

    
    <glyph glyph-name="suo" unicode="&#58898;" d="M511.55 834C346.4 834 212.3 699.45 212.3 534.75c0-2.25 0.45-4.95 0.9-7.2l1.8-5.85-4.95-3.15c-40.5-23.85-64.35-65.7-64.35-111.6V65.4c0-72 58.5-130.95 130.95-130.95h470.7c72 0 130.95 58.5 130.95 130.95V406.5c0 45.9-23.85 88.2-63.9 112.05l-4.95 3.15 1.8 5.85c0.45 2.7 0.9 5.4 0.9 7.2C811.25 699.9 676.7 834 511.55 834zM746.9-2.55H276.2c-36.9 0-67.5 30.15-67.5 67.5V406.5c0 36.9 30.15 67.5 67.5 67.5h470.7c36.9 0 67.5-30.15 67.5-67.5v-341.55c-0.45-37.35-30.6-67.5-67.5-67.5zM511.55 339c-36.45 0-66.6-29.7-66.6-66.6 0-20.25 9.45-39.15 25.2-51.75l3.15-2.7-14.4-133.65c0-0.45 0-0.9 0.45-1.8 0.45-0.45 0.9-0.45 1.8-0.45h99.45c0.9 0 2.25 0.9 2.25 2.25v0.45l-0.45 0.9-13.95 131.85 3.15 2.7c16.2 12.6 25.2 31.5 25.2 51.75 0.9 37.8-28.8 67.05-65.25 67.05zM747.8 537H275.75l0.45 8.55c5.85 126.45 109.35 225 235.35 225S741.5 672 746.9 545.55l0.9-8.55z"  horiz-adv-x="1024" />

    
    <glyph glyph-name="hebing" unicode="&#59054;" d="M147.017143-54.223238v194.657524c14.57981 9.752381 243.321905 145.993143 243.321905 145.993143l97.328762-48.664381-243.321905-145.993143v-145.993143c0-24.380952-24.380952-48.664381-48.664381-48.664381-24.380952 0-48.664381 24.33219-48.664381 48.664381zM512 860.696381l121.660952-184.953905c14.628571-14.57981 14.628571-34.03581 0-48.664381H536.380952v-194.657524l340.650667-194.657523v-291.986286c0-24.380952-24.33219-48.664381-48.664381-48.664381s-48.664381 24.33219-48.664381 48.664381v243.321905l-340.650667 194.657523v243.321905H341.674667c-14.628571 14.628571-14.628571 34.084571 0 48.664381L468.21181 860.696381c14.628571 14.628571 34.03581 14.628571 43.78819 0z"  horiz-adv-x="1024" />

    
    <glyph glyph-name="renwu" unicode="&#59019;" d="M512 799.232c-229.376 0-415.744-185.856-415.744-415.744s185.856-415.744 415.744-415.744 415.744 185.856 415.744 415.744-186.368 415.744-415.744 415.744z m0-779.264c-200.704 0-363.52 162.816-363.52 363.52s162.816 363.52 363.52 363.52 363.52-162.816 363.52-363.52-162.816-363.52-363.52-363.52zM507.392 315.392c0 16.384-13.312 29.696-29.696 29.696-7.68 0-14.336-3.072-19.456-7.68l-0.512 0.512-101.376-101.376-52.736 52.736-0.512-0.512c-5.12 4.096-11.776 6.656-18.944 6.656-16.384 0-29.696-13.312-29.696-29.696 0-9.728 4.608-17.92 11.264-23.552l90.112-90.112 41.984 41.984-0.512 0.512 97.28 97.28c8.192 5.12 12.8 13.824 12.8 23.552zM744.96 267.264c-2.048 0-3.584 0-5.632-0.512h-176.128c-1.536 0.512-3.584 0.512-5.12 0.512-14.848 0-27.136-12.288-27.136-27.136 0-13.824 10.752-25.088 24.064-26.624v-0.512h190.464c14.848 0 27.136 12.288 27.136 27.136-0.512 14.848-12.8 27.136-27.648 27.136zM744.96 546.816c-2.048 0-3.584 0-5.632-0.512h-176.128c-1.536 0.512-3.584 0.512-5.12 0.512-14.848 0-27.136-12.288-27.136-27.136 0-13.824 10.752-25.088 24.064-26.624v-0.512h190.464c14.848 0 27.136 12.288 27.136 27.136-0.512 14.848-12.8 27.136-27.648 27.136zM355.328 611.84c-55.296 0-100.352-45.056-100.352-100.352s45.056-100.352 100.352-100.352 100.352 45.056 100.352 100.352-45.056 100.352-100.352 100.352z m0-153.6c-29.696 0-53.248 24.064-53.248 53.248s24.064 53.248 53.248 53.248 53.248-24.064 53.248-53.248-23.552-53.248-53.248-53.248z"  horiz-adv-x="1024" />

    
    <glyph glyph-name="card" unicode="&#58953;" d="M691.26144 704H332.73856c-113.6384 0-205.74208-92.6976-205.74208-207.08864v-315.90912c0-64.56832 51.99872-116.91008 116.15232-116.91008h537.71776c64.128 0 116.13184 52.352 116.13184 116.91008V496.91136c0 114.39104-92.09856 207.08864-205.73696 207.08864z m153.10848-522.99776c0-35.24096-28.47744-63.90784-63.49824-63.90784H243.12832c-12.9024-0.00512-25.4976 3.95776-36.0704 11.36128 2.70848 35.15904 19.29216 69.72928 46.42816 96.16896 63.3088 62.27456 164.85888 62.27456 228.16768 0 29.76256-28.99968 46.82752-67.77856 46.82752-106.37824h52.64896c0 111.70816-97.80224 206.09024-213.57056 206.09024-80 0-151.4496-45.10208-187.93984-109.83936v282.4192a153.6 153.6 0 0 0 44.8512 108.99968 151.61856 151.61856 0 0 0 108.2624 45.09184h358.51776a151.59296 151.59296 0 0 0 108.26752-45.13792 153.62048 153.62048 0 0 0 44.8512-108.99968v-315.86816zM369.95072 558.2592c-56.76032 0-102.7584-46.3104-102.7584-103.43936s45.99808-103.43936 102.7584-103.43936 102.7584 46.3104 102.7584 103.43936-45.99808 103.43936-102.7584 103.43936m0-153.8816c-27.85792-0.18432-50.5856 22.25152-50.76992 50.10944-0.18432 27.85792 22.25152 50.5856 50.10944 50.76992 27.85792 0.18432 50.5856-22.25152 50.76992-50.10944v-0.32768c0.06144-27.75552-22.35904-50.31936-50.10944-50.44224m403.74784 107.71456h-182.2208a26.50112 26.50112 0 1 1 0-53.00224h182.2208a26.50112 26.50112 0 1 1 0 53.00224m26.30144-130.62144a26.41408 26.41408 0 0 1-26.2912 26.53184H591.47776a26.50112 26.50112 0 1 1 0-53.00224h182.2208a26.41408 26.41408 0 0 1 26.30144 26.4704m-25.68192-77.60896h-102.73792a26.50112 26.50112 0 1 1 0-53.00224h102.73792a26.50112 26.50112 0 1 1 0 53.00224"  horiz-adv-x="1024" />

    
    <glyph glyph-name="code" unicode="&#58895;" d="M940.544 388.8128l-214.1696 179.712a32.3072 32.3072 0 0 1-41.5232-49.5104l191.744-160.8704-192.512-161.536a32 32 0 0 1 41.1648-48.9984l223.232 187.2896a32 32 0 0 1 3.9424 45.056 31.8464 31.8464 0 0 1-11.8272 8.8576z m-793.1392-30.72l191.744 160.9728a32.3072 32.3072 0 0 1-41.5232 49.5104l-214.2208-179.712a32 32 0 0 1-7.936-53.9136l223.232-187.392a32 32 0 1 1 41.1136 49.0496h0.0512l-192.512 161.536z m427.3152 388.4032c17.408-3.072 29.0304-19.6608 25.9584-37.0688L483.9936 47.66719999999998a32 32 0 1 0-62.976 11.1104L537.6 720.5376a32 32 0 0 0 37.0688 25.9584z"  horiz-adv-x="1024" />

    
    <glyph glyph-name="add" unicode="&#58882;" d="M840.836096 430.137344H556.363776V714.576896c0 24.517632-19.852288 44.399616-44.386304 44.399616-24.543232 0-44.392448-19.881984-44.392448-44.399616v-284.439552H183.163904c-24.544256 0-44.392448-19.881984-44.392448-44.399616 0-24.50432 19.848192-44.386304 44.392448-44.386304h284.422144v-284.453888c0-24.500224 19.849216-44.384256 44.392448-44.384256 24.534016 0 44.386304 19.884032 44.386304 44.384256V341.35142399999995H840.83712c24.544256 0 44.392448 19.881984 44.392448 44.386304-0.002048 24.517632-19.849216 44.399616-44.393472 44.399616z"  horiz-adv-x="1024" />

    
    <glyph glyph-name="feiji" unicode="&#58883;" d="M974.5152 813.02528c-22.67648 10.65472-37.28384 2.5344-37.28384 2.5344S117.13024 377.67168 87.8848 361.89696c-29.24544-15.77472-27.95008-49.00352-3.40992-56.96512l272.19968-88.3456 0.21504 0.66048c1.81248-0.54272 3.69152-0.92672 5.67296-0.92672a19.83488 19.83488 0 0 1 19.84 19.84 19.7888 19.7888 0 0 1-13.32224 18.65728l0.21504 0.65536-244.91008 78.7968 765.43488 409.66144s-409.32352-476.85632-426.20928-496.30208-26.38336-39.6544-26.34752-65.23392l0.25088-191.88224c-0.3584-1.49504-0.60416-3.03616-0.60416-4.63872 0-10.96192 8.87808-19.84 19.84-19.84s19.84 8.87808 19.84 19.84h1.34656s0.512 179.11808 0 192.68096 5.3504 28.42112 11.25888 35.30752l448.72192 522.91072s-122.2144-624.55296-123.84256-632.83712c-1.25952-6.38976-5.44256-9.11872-11.2384-7.2448-6.99392 2.26304-262.4768 81.86368-262.4768 81.86368l-0.19456-0.5888a19.77344 19.77344 0 0 1-8.32 1.87904 19.83488 19.83488 0 0 1-19.84-19.84 19.83488 19.83488 0 0 1 15.83616-19.43552l-0.46592-1.408s242.57024-76.19072 266.76736-83.39968c26.60352-7.93088 54.23616 9.21088 59.86304 39.39328 4.63872 24.9088 131.16928 668.91264 133.02784 680.4992 1.84832 11.57632 6.97856 27.96544-12.5184 37.37088z"  horiz-adv-x="1024" />

    
    <glyph glyph-name="chart" unicode="&#58978;" d="M288.416 333.5376l188.16 196.8528 181.8816-190.3008c1.392-2.1696 2.3088-4.6272 4.176-6.552 14.9136-15.6144 39.0528-15.6144 53.9232 0l208.9392 218.5968c2.352 1.5792 4.5216 3.3984 6.4896 5.4432 15.24 15.9456 15.24 41.808 0 57.7632-15.2544 15.9552-39.9792 15.9552-55.224 0-1.1184-1.2048-1.6176-2.7648-2.5968-4.0704l-183.4992-192.024-185.712 194.3232c-0.4704 0.5424-0.6336 1.248-1.1184 1.7712-15.2448 15.9504-39.9696 15.9504-55.2288 0-1.1376-1.2096-1.5984-2.7696-2.5584-4.0752L234.4976 389.9136c-14.8944-15.576-14.8944-40.8432 0-56.376 14.8896-15.6192 39.0432-15.6192 53.9184 0z m660.792-256.2384H115.1648V728.904c0 18.9456-14.9232 34.296-33.36 34.296s-33.3648-15.3504-33.3648-34.296v-685.9104c0-18.9456 14.928-34.2864 33.3648-34.2864h867.408c18.4128 0 33.3648 15.336 33.3648 34.2864 0.0048 18.936-14.9424 34.3056-33.3696 34.3056z m0 0"  horiz-adv-x="1024" />

    
    <glyph glyph-name="rili" unicode="&#58991;" d="M810.666667 21.333333H213.333333a85.333333 85.333333 0 0 0-85.333333 85.333334v512a85.333333 85.333333 0 0 0 85.333333 85.333333h42.666667a42.666667 42.666667 0 0 0 85.333333 0h298.666667a42.666667 42.666667 0 0 0 85.333333 0h85.333334a85.333333 85.333333 0 0 0 85.333333-85.333333v-512a85.333333 85.333333 0 0 0-85.333333-85.333334z m42.666666 597.333334a42.666667 42.666667 0 0 1-42.666666 42.666666H213.333333a42.666667 42.666667 0 0 1-42.666666-42.666666v-42.666667h618.666666a21.333333 21.333333 0 0 0 0-42.666667H170.666667v-426.666666a42.666667 42.666667 0 0 1 42.666666-42.666667h597.333334a42.666667 42.666667 0 0 1 42.666666 42.666667v512z m-170.666666-170.666667h85.333333v-85.333333h-85.333333v85.333333z m-213.333334-170.666667h85.333334v-85.333333h-85.333334v85.333333z m0 170.666667h85.333334v-85.333333h-85.333334v85.333333z m-213.333333-170.666667h85.333333v-85.333333H256v85.333333z m0 170.666667h85.333333v-85.333333H256v85.333333z"  horiz-adv-x="1024" />

    
    <glyph glyph-name="icon32208" unicode="&#59035;" d="M525.6192 694.68918518c-170.87905185 0-310.68918518-139.81013333-310.68918518-310.68918518 0-170.87905185 139.81013333-310.68918518 310.68918518-310.68918518 170.87905185 0 310.68918518 139.81013333 310.68918519 310.68918518C836.30838519 554.87905185 696.49825185 694.68918518 525.6192 694.68918518zM525.6192 150.98311110999998c-128.15928889 0-233.01688889 104.8576-233.01688888 233.01688889s104.8576 233.01688889 233.01688888 233.01688889 233.01688889-104.8576 233.01688889-233.01688889S653.77848889 150.98311110999998 525.6192 150.98311110999998z"  horiz-adv-x="1024" />

    
    <glyph glyph-name="mail" unicode="&#59632;" d="M512.3 307.2c-7.2 0-13.9 2.2-20.2 5.8L64.2 585.4v-502.3c0-41.2 33.6-74.4 74.8-74.4h746.5c41.2 0 74.8 33.2 74.8 74.4V585L532.4 313c-6.2-3.6-12.9-5.8-20.1-5.8M885.5 755.3H139c-41.2 0-74.8-33.2-74.8-74.4v-5.8l448.1-286.3 448.1 284.5v7.6c0 41.2-33.6 74.4-74.9 74.4"  horiz-adv-x="1024" />

    
    <glyph glyph-name="wiki" unicode="&#58905;" d="M192 576h256v-64H192V576z m0-192h256V448H192v-64z m0-128h256V320H192v-64z m704 320h-256v-64h256V576z m0-128h-256v-64h256V448z m0-128h-256v-64h256V320z m128 384v-576c0-35.2-28.8-64-64-64H608l-64-64-64 64H128c-35.2 0-64 28.8-64 64V704c0 35.2 28.8 64 64 64h352l64-64 64 64H960c35.2 0 64-28.8 64-64z m-512-32L480 704H128v-576h384V672z m448 32H608l-32-32V128h384V704z"  horiz-adv-x="1024" />

    
    <glyph glyph-name="project" unicode="&#58885;" d="M849.5 46.5l-39.9375 39.65625A56.08125 56.08125 0 0 0 849.5 102.75a56.25 56.25 0 0 1 56.25 56.25V721.5a56.25 56.25 0 0 1-56.25 56.25H287a56.25 56.25 0 0 1-56.25-56.25v-4.78125c0-15.46875-6.1875-29.475-16.3125-39.65625L174.5 716.71875V721.5a112.5 112.5 0 0 0 112.5 112.5h562.5a112.5 112.5 0 0 0 112.5-112.5v-562.5a112.5 112.5 0 0 0-112.5-112.5zM118.25 609v-562.5a56.25 56.25 0 0 1 56.25-56.25h562.5a56.25 56.25 0 0 1 56.25 56.25V609a56.25 56.25 0 0 1-56.25 56.25H174.5a56.25 56.25 0 0 1-56.25-56.25z m618.75 112.5a112.5 112.5 0 0 0 112.5-112.5v-562.5a112.5 112.5 0 0 0-112.5-112.5H174.5a112.5 112.5 0 0 0-112.5 112.5V609a112.5 112.5 0 0 0 112.5 112.5h562.5zM202.625 609h337.5a28.125 28.125 0 0 0 0-56.25h-337.5a28.125 28.125 0 0 0 0 56.25z m506.25-56.25a28.125 28.125 0 1 0 0 56.25 28.125 28.125 0 0 0 0-56.25zM118.25 496.5h675v-56.25H118.25V496.5z"  horiz-adv-x="1024" />

    
    <glyph glyph-name="dir" unicode="&#58956;" d="M863.56689453 641.81835938h-332.88574219a46.98632813 46.98632813 0 0 0-23.25585937 6.16992187l-131.66455078 75.19921875a94.03857422 94.03857422 0 0 1-46.51171875 12.36621094H160.43310547A70.38720703 70.38720703 0 0 1 90.125 665.24560547v-562.49121094a70.38720703 70.38720703 0 0 1 70.30810547-70.30810547h703.13378906A70.38720703 70.38720703 0 0 1 933.875 102.75439453000001V571.49707031a70.38720703 70.38720703 0 0 1-70.30810547 70.32128907z m23.44042969-539.06396485a23.46679688 23.46679688 0 0 0-23.44042969-23.44042969H160.43310547a23.46679688 23.46679688 0 0 0-23.44042969 23.44042969V454.30810547h750.00146484l0.0131836-351.55371094zM137.00585937 501.18896484V665.24560547a23.46679688 23.46679688 0 0 0 23.44042969 23.44042969h168.81591797c8.16064453 0 16.18945313-2.12255859 23.26904297-6.16992188l131.625-75.21240234a93.93310547 93.93310547 0 0 1 46.52490234-12.35302735h332.88574219a23.46679688 23.46679688 0 0 0 23.44042969-23.44042968v-70.30810547H137.00585937z m1e-8 0"  horiz-adv-x="1024" />

    
    <glyph glyph-name="branch" unicode="&#58911;" d="M256-128c21.942857 0 36.571429 14.628571 36.571429 36.571429s-14.628571 36.571429-36.571429 36.571428-36.571429-14.628571-36.571429-36.571428 14.628571-36.571429 36.571429-36.571429z m512 731.428571C709.485714 603.4285709999999 658.285714 654.628571 658.285714 713.142857S709.485714 822.857143 768 822.857143s109.714286-51.2 109.714286-109.714286S826.514286 603.4285709999999 768 603.4285709999999m-512 0C197.485714 603.4285709999999 146.285714 654.628571 146.285714 713.142857S197.485714 822.857143 256 822.857143 365.714286 771.657143 365.714286 713.142857 314.514286 603.4285709999999 256 603.4285709999999M585.142857 713.142857c0-87.771429 58.514286-160.914286 146.285714-175.542857C716.8 325.48571400000003 541.257143 164.57142899999997 329.142857 164.57142899999997H292.571429V530.285714c80.457143 14.628571 146.285714 87.771429 146.285714 175.542857C438.857143 815.542857 358.4 896 256 896S73.142857 815.542857 73.142857 713.142857c0-87.771429 65.828571-160.914286 146.285714-175.542857v-482.742857c0-21.942857 14.628571-36.571429 36.571429-36.571429s36.571429 14.628571 36.571429 36.571429V91.42857100000003h36.571428c248.685714 0 453.485714 197.485714 475.428572 438.857143 87.771429 14.628571 146.285714 87.771429 146.285714 182.857143C950.857143 815.542857 870.4 896 768 896S585.142857 815.542857 585.142857 713.142857z"  horiz-adv-x="1024" />

    
    <glyph glyph-name="file" unicode="&#58944;" d="M751.3-61.39999999999998H274.7c-82.7 0-150 67.3-150 150V679.8c0 82.7 67.3 150 150 150h138.9c13.8 0 25-11.2 25-25s-11.2-25-25-25H274.7c-55.1 0-100-44.9-100-100v-591.2c0-55.1 44.9-100 100-100h476.6c55.1 0 100 44.9 100 100v390H653.6c-32.4 0-62.8 12.6-85.7 35.6-22.9 23-35.4 53.5-35.2 85.9l0.9 204.9c0 10 6 19 15.2 22.9 9.2 3.9 19.8 2 27-4.8l317.7-301.2 0.3-0.3 0.5-0.5c4.3-4.5 6.9-10.6 6.9-17.2v-415c0.1-83-67.2-150.3-149.9-150.3z m-168 808.3l-0.6-147.1c-0.1-19 7.3-36.9 20.7-50.4 13.4-13.5 31.3-20.9 50.3-20.9h160L583.3 746.9zM701.4 298H324.6c-13.8 0-25 11.2-25 25s11.2 25 25 25h376.8c13.8 0 25-11.2 25-25s-11.2-25-25-25z m0-149.3H324.6c-13.8 0-25 11.2-25 25s11.2 25 25 25h376.8c13.8 0 25-11.2 25-25s-11.2-25-25-25z"  horiz-adv-x="1024" />

    
    <glyph glyph-name="fujian" unicode="&#59186;" d="M729.6 484.8L446.4 201.6c-43.2-43.2-115.2-43.2-158.4 0s-43.2 115.2 0 158.4l334.4 334.4c72 72 188.8 72 260.8 0s72-188.8 0-260.8L524.8 76.8c-99.2-99.2-262.4-99.2-361.6 0s-99.2 262.4 0 361.6l305.6 307.2c3.2 3.2 6.4 4.8 8 8l3.2 3.2c12.8 12.8 32 12.8 44.8 0 12.8-12.8 12.8-32 0-44.8-4.8-3.2-8-6.4-11.2-11.2L208 393.6c-75.2-75.2-75.2-196.8 0-272s196.8-75.2 272 0l305.6 305.6 11.2 11.2 40 40c46.4 46.4 46.4 123.2 0 169.6s-123.2 46.4-169.6 0L332.8 315.2c-19.2-19.2-19.2-49.6 0-67.2 19.2-19.2 49.6-19.2 67.2 0l283.2 283.2c12.8 12.8 32 12.8 44.8 0 12.8-14.4 12.8-33.6 1.6-46.4z"  horiz-adv-x="1024" />

    
    <glyph glyph-name="up" unicode="&#58886;" d="M515.6-14.200000000000045c-220.5 0-400 179.5-400 400s179.5 400 400 400 400-179.5 400-400-179.5-400-400-400z m0 752.9c-194.6 0-352.9-158.3-352.9-352.9S321 32.89999999999998 515.6 32.89999999999998s352.9 158.3 352.9 352.9-158.3 352.9-352.9 352.9zM515.6 150.5c-13 0-23.5 10.5-23.5 23.5V597.2c0 13 10.5 23.5 23.5 23.5s23.5-10.5 23.5-23.5V174c0-13-10.5-23.5-23.5-23.5zM656.7 432.9c-6 0-12 2.3-16.6 6.9L515.6 564.3 391 439.8c-9.2-9.2-24.1-9.2-33.3 0-9.2 9.2-9.2 24.1 0 33.3l141.2 141.2c9.2 9.2 24.1 9.2 33.3 0l141.2-141.2c9.2-9.2 9.2-24.1 0-33.3-4.6-4.6-10.6-6.9-16.7-6.9z"  horiz-adv-x="1024" />

    
    <glyph glyph-name="list" unicode="&#58890;" d="M732.8 544H416c-12.8 0-25.6 9.6-25.6 25.6 0 12.8 9.6 25.6 25.6 25.6h313.6c12.8 0 25.6-9.6 25.6-25.6s-9.6-25.6-22.4-25.6z m0 0M259.2 566.4c0-19.2 16-38.4 38.4-38.4 19.2 0 38.4 16 38.4 38.4 0 12.8-6.4 25.6-19.2 32-12.8 9.6-28.8 9.6-38.4 0-12.8-6.4-19.2-16-19.2-32z m0 0M732.8 371.20000000000005H416c-12.8 0-25.6 9.6-25.6 25.6 0 12.8 9.6 25.6 25.6 25.6h313.6c12.8 0 25.6-9.6 25.6-25.6 0-12.8-9.6-25.6-22.4-25.6z m0-185.6H416c-12.8 0-25.6 9.6-25.6 25.6 0 12.8 9.6 25.6 25.6 25.6h313.6c12.8 0 25.6-9.6 25.6-25.6s-9.6-25.6-22.4-25.6z m0 0M259.2 396.8c0-19.2 16-38.4 38.4-38.4 19.2 0 38.4 16 38.4 38.4 0 12.8-6.4 25.6-19.2 32-12.8 6.4-25.6 6.4-38.4 0-12.8-6.4-19.2-19.2-19.2-32z m0 0M259.2 211.20000000000005c0-19.2 16-38.4 38.4-38.4 19.2 0 38.4 16 38.4 38.4 0 12.8-6.4 25.6-19.2 32-12.8 6.4-25.6 6.4-38.4 0-12.8-6.4-19.2-19.2-19.2-32z m0 0M774.4-64H249.6c-64 0-115.2 51.2-115.2 115.2v672c0 64 51.2 115.2 115.2 115.2h524.8c64 0 115.2-51.2 115.2-115.2 0-12.8-9.6-25.6-25.6-25.6-12.8 0-25.6 9.6-25.6 25.6 0 35.2-28.8 64-64 64H249.6c-35.2 0-64-28.8-64-64v-672c0-35.2 28.8-64 64-64h524.8c35.2 0 64 28.8 64 64V732.8c0 12.8 9.6 41.6 22.4 41.6 12.8 0 25.6-28.8 25.6-41.6v-681.6c3.2-64-48-115.2-112-115.2z m0 0"  horiz-adv-x="1024" />

    
    <glyph glyph-name="del" unicode="&#58907;" d="M731.918 715.466H293.285c-40.383 0-73.106-32.72-73.106-73.103v-24.368h584.844v24.368c0.001 40.383-32.72 73.103-73.105 73.103m-127.696 48.735l10.756-76.91H410.225l10.756 76.91h183.24m5.855 48.735H415.128c-20.108 0-38.813-16.277-41.621-36.218L359.252 674.75c-2.784-19.917 11.4-36.194 31.508-36.194h243.685c20.108 0 34.293 16.276 31.484 36.217l-14.255 101.969c-2.786 19.917-21.49 36.194-41.598 36.194m134.026-243.675H281.1c-26.795 0-46.761-21.845-44.334-48.544l39.933-438.996c2.403-26.7 26.344-48.544 53.14-48.544h365.527c26.795 0 50.736 21.845 53.14 48.544l39.932 438.996c2.426 26.699-17.54 48.544-44.336 48.544M415.128 130.64700000000005h-73.106L317.653 471.79h97.474v-341.144z m146.211 0h-97.474V471.79h97.474v-341.144z m121.842 0h-73.106V471.79h97.474l-24.368-341.144z"  horiz-adv-x="1024" />

    
    <glyph glyph-name="tag" unicode="&#58976;" d="M933.12684776 370.3014832L497.72495498 805.7033751C477.93396026 825.49436982 450.04664902 836.28945849 422.15933779 833.59068633L171.17353584 814.69928203A96.50921309 96.50921309 0 0 1 82.11405781 725.63980401L62.32306308 474.65400205a98.11160947 98.11160947 0 0 1 27.88731124-75.56561718L525.61226622-36.31350702999998c17.99181387-17.99181387 42.2807625-28.78690166 68.36889286-28.78690254s50.37707813 9.89549737 68.36889199 28.78690254l269.87720537 269.87720537c38.6823999 36.88321816 38.6823999 98.95497539 0.89959132 136.73778486z m-26.98772081-109.75006406l-269.87720625-269.87720625c-22.4897669-22.4897669-60.27257636-22.4897669-82.76234326 0L118.09768555 425.17651435a60.94726875 60.94726875 0 0 0-17.09222256 45.8791251l18.8914043 250.98580196c1.79918174 28.78690166 25.18853906 51.27666943 53.97544072 53.97544072l250.98580196 18.8914043h4.49795302a59.31676055 59.31676055 0 0 0 41.38117207-17.09222257l435.40189189-435.40189188c22.4897669-22.4897669 22.4897669-59.37298506 0-81.86275284zM299.8150042 672.56395372c-20.69058604 0-39.58199033-8.09631651-53.97544072-22.48976778s-22.4897669-34.18444599-22.48976778-53.97544073c0-20.69058604 8.09631651-39.58199033 22.48976778-53.97544159s33.28485557-22.4897669 53.97544072-22.4897669 39.58199033 8.09631651 53.9754416 22.4897669 22.4897669 33.28485557 22.4897669 53.97544159-8.09631651 39.58199033-22.4897669 53.97544073c-13.49385996 14.39345127-33.28485557 22.4897669-53.9754416 22.48976777z m27.88731123-103.45292931c-14.39345127-14.39345127-39.58199033-14.39345127-53.97544072 0-7.19672519 7.19672519-10.79508867 17.09222344-10.79508867 26.9877208s3.5983626 19.79099472 10.79508867 26.98772081 17.09222344 10.79508867 26.98771992 10.79508779 19.79099472-3.5983626 26.9877208-10.79508779 10.79508867-17.09222344 10.79508868-26.98772081c0-10.79508867-3.5983626-19.79099472-10.79508868-26.9877208z"  horiz-adv-x="1024" />

    


  </font>
</defs>
</svg>
